<svg width="500" height="360" viewBox="0 0 500 360" fill="none" xmlns="http://www.w3.org/2000/svg">
<path d="M250 104L250 256" stroke="#464646" stroke-width="2" stroke-linecap="round"/>
<g filter="url(#filter0_d_1_2)">
<path d="M279.64 140H284.04V168H279.64V140ZM287.335 140H292.855L297.135 156.76H297.215V140H301.135V168H296.615L291.335 147.56H291.255V168H287.335V140ZM310.126 168.4C307.992 168.4 306.379 167.8 305.286 166.6C304.192 165.373 303.646 163.627 303.646 161.36V159.76H307.806V161.68C307.806 163.493 308.566 164.4 310.086 164.4C310.832 164.4 311.392 164.187 311.766 163.76C312.166 163.307 312.366 162.587 312.366 161.6C312.366 160.427 312.099 159.4 311.566 158.52C311.032 157.613 310.046 156.533 308.606 155.28C306.792 153.68 305.526 152.24 304.806 150.96C304.086 149.653 303.726 148.187 303.726 146.56C303.726 144.347 304.286 142.64 305.406 141.44C306.526 140.213 308.152 139.6 310.286 139.6C312.392 139.6 313.979 140.213 315.046 141.44C316.139 142.64 316.686 144.373 316.686 146.64V147.8H312.526V146.36C312.526 145.4 312.339 144.707 311.966 144.28C311.592 143.827 311.046 143.6 310.326 143.6C308.859 143.6 308.126 144.493 308.126 146.28C308.126 147.293 308.392 148.24 308.926 149.12C309.486 150 310.486 151.067 311.926 152.32C313.766 153.92 315.032 155.373 315.726 156.68C316.419 157.987 316.766 159.52 316.766 161.28C316.766 163.573 316.192 165.333 315.046 166.56C313.926 167.787 312.286 168.4 310.126 168.4ZM322.728 144H318.128V140H331.728V144H327.128V168H322.728V144ZM335.423 140H341.383L345.943 168H341.543L340.743 162.44V162.52H335.743L334.943 168H330.863L335.423 140ZM340.223 158.72L338.263 144.88H338.183L336.263 158.72H340.223ZM348.078 140H352.478V164H359.718V168H348.078V140ZM365.384 140H371.344L375.904 168H371.504L370.704 162.44V162.52H365.704L364.904 168H360.824L365.384 140ZM370.184 158.72L368.224 144.88H368.144L366.224 158.72H370.184ZM378.038 140H384.758C386.945 140 388.585 140.587 389.678 141.76C390.772 142.933 391.318 144.653 391.318 146.92V161.08C391.318 163.347 390.772 165.067 389.678 166.24C388.585 167.413 386.945 168 384.758 168H378.038V140ZM384.678 164C385.398 164 385.945 163.787 386.318 163.36C386.718 162.933 386.918 162.24 386.918 161.28V146.72C386.918 145.76 386.718 145.067 386.318 144.64C385.945 144.213 385.398 144 384.678 144H382.438V164H384.678ZM400.648 168.4C398.488 168.4 396.835 167.787 395.688 166.56C394.542 165.333 393.968 163.6 393.968 161.36V146.64C393.968 144.4 394.542 142.667 395.688 141.44C396.835 140.213 398.488 139.6 400.648 139.6C402.808 139.6 404.462 140.213 405.608 141.44C406.755 142.667 407.328 144.4 407.328 146.64V161.36C407.328 163.6 406.755 165.333 405.608 166.56C404.462 167.787 402.808 168.4 400.648 168.4ZM400.648 164.4C402.168 164.4 402.928 163.48 402.928 161.64V146.36C402.928 144.52 402.168 143.6 400.648 143.6C399.128 143.6 398.368 144.52 398.368 146.36V161.64C398.368 163.48 399.128 164.4 400.648 164.4ZM410.304 140H416.824C419.091 140 420.744 140.533 421.784 141.6C422.824 142.64 423.344 144.253 423.344 146.44V148.16C423.344 151.067 422.384 152.907 420.464 153.68V153.76C421.531 154.08 422.277 154.733 422.704 155.72C423.157 156.707 423.384 158.027 423.384 159.68V164.6C423.384 165.4 423.411 166.053 423.464 166.56C423.517 167.04 423.651 167.52 423.864 168H419.384C419.224 167.547 419.117 167.12 419.064 166.72C419.011 166.32 418.984 165.6 418.984 164.56V159.44C418.984 158.16 418.771 157.267 418.344 156.76C417.944 156.253 417.237 156 416.224 156H414.704V168H410.304V140ZM416.304 152C417.184 152 417.837 151.773 418.264 151.32C418.717 150.867 418.944 150.107 418.944 149.04V146.88C418.944 145.867 418.757 145.133 418.384 144.68C418.037 144.227 417.477 144 416.704 144H414.704V152H416.304ZM429.837 140H435.797L440.357 168H435.957L435.157 162.44V162.52H430.157L429.357 168H425.277L429.837 140ZM434.637 158.72L432.677 144.88H432.597L430.677 158.72H434.637Z" fill="#464646"/>
</g>
<g filter="url(#filter1_d_1_2)">
<path d="M279.64 186H286.36C288.547 186 290.187 186.587 291.28 187.76C292.373 188.933 292.92 190.653 292.92 192.92V207.08C292.92 209.347 292.373 211.067 291.28 212.24C290.187 213.413 288.547 214 286.36 214H279.64V186ZM286.28 210C287 210 287.547 209.787 287.92 209.36C288.32 208.933 288.52 208.24 288.52 207.28V192.72C288.52 191.76 288.32 191.067 287.92 190.64C287.547 190.213 287 190 286.28 190H284.04V210H286.28ZM295.89 186H307.89V190H300.29V197.4H306.33V201.4H300.29V210H307.89V214H295.89V186ZM316.828 186H328.468V190H321.228V197.8H326.908V201.8H321.228V214H316.828V186ZM330.578 186H337.098C339.364 186 341.018 186.533 342.058 187.6C343.098 188.64 343.618 190.253 343.618 192.44V194.16C343.618 197.067 342.658 198.907 340.738 199.68V199.76C341.804 200.08 342.551 200.733 342.978 201.72C343.431 202.707 343.658 204.027 343.658 205.68V210.6C343.658 211.4 343.684 212.053 343.738 212.56C343.791 213.04 343.924 213.52 344.138 214H339.658C339.498 213.547 339.391 213.12 339.338 212.72C339.284 212.32 339.258 211.6 339.258 210.56V205.44C339.258 204.16 339.044 203.267 338.618 202.76C338.218 202.253 337.511 202 336.498 202H334.978V214H330.578V186ZM336.578 198C337.458 198 338.111 197.773 338.538 197.32C338.991 196.867 339.217 196.107 339.217 195.04V192.88C339.217 191.867 339.031 191.133 338.658 190.68C338.311 190.227 337.751 190 336.978 190H334.978V198H336.578ZM346.71 186H351.11V214H346.71V186ZM360.766 214.4C358.606 214.4 356.952 213.787 355.806 212.56C354.659 211.333 354.086 209.6 354.086 207.36V192.64C354.086 190.4 354.659 188.667 355.806 187.44C356.952 186.213 358.606 185.6 360.766 185.6C362.926 185.6 364.579 186.213 365.726 187.44C366.872 188.667 367.446 190.4 367.446 192.64V207.36C367.446 209.6 366.872 211.333 365.726 212.56C364.579 213.787 362.926 214.4 360.766 214.4ZM360.766 210.4C362.286 210.4 363.046 209.48 363.046 207.64V192.36C363.046 190.52 362.286 189.6 360.766 189.6C359.246 189.6 358.486 190.52 358.486 192.36V207.64C358.486 209.48 359.246 210.4 360.766 210.4ZM376.748 210.96C376.748 208.96 377.068 207.253 377.708 205.84C378.348 204.4 379.494 202.813 381.148 201.08C382.774 199.347 383.894 197.867 384.508 196.64C385.148 195.413 385.467 194.133 385.467 192.8C385.467 191.6 385.268 190.773 384.868 190.32C384.494 189.84 383.934 189.6 383.188 189.6C381.668 189.6 380.908 190.52 380.908 192.36V195.36H376.748V192.64C376.748 190.373 377.308 188.64 378.428 187.44C379.548 186.213 381.174 185.6 383.308 185.6C385.441 185.6 387.068 186.213 388.188 187.44C389.308 188.64 389.868 190.373 389.868 192.64C389.868 194.347 389.454 196.013 388.628 197.64C387.828 199.267 386.428 201.133 384.428 203.24C383.121 204.627 382.241 205.76 381.788 206.64C381.334 207.493 381.108 208.413 381.108 209.4V210H389.468V214H376.748V210.96ZM392.763 210.96C392.763 208.96 393.083 207.253 393.723 205.84C394.363 204.4 395.51 202.813 397.163 201.08C398.79 199.347 399.91 197.867 400.523 196.64C401.163 195.413 401.483 194.133 401.483 192.8C401.483 191.6 401.283 190.773 400.883 190.32C400.51 189.84 399.95 189.6 399.203 189.6C397.683 189.6 396.923 190.52 396.923 192.36V195.36H392.763V192.64C392.763 190.373 393.323 188.64 394.443 187.44C395.563 186.213 397.19 185.6 399.323 185.6C401.456 185.6 403.083 186.213 404.203 187.44C405.323 188.64 405.883 190.373 405.883 192.64C405.883 194.347 405.47 196.013 404.643 197.64C403.843 199.267 402.443 201.133 400.443 203.24C399.136 204.627 398.256 205.76 397.803 206.64C397.35 207.493 397.123 208.413 397.123 209.4V210H405.483V214H392.763V210.96Z" fill="#464646"/>
</g>
<g filter="url(#filter2_d_1_2)">
<path d="M46.6347 149.339L67.882 164.776L89.1293 149.339L81.0136 174.316L102.261 189.753L75.9978 189.753L67.882 214.731L59.7663 189.753L33.5032 189.753L54.7505 174.316L46.6347 149.339Z" fill="white"/>
<path d="M47.5858 150.648L67.5881 165.18L67.882 165.394L68.1759 165.18L88.1783 150.648L80.538 174.162L80.4258 174.507L80.7197 174.721L100.722 189.253L75.9978 189.253L75.6345 189.253L75.5222 189.599L67.882 213.113L60.2418 189.599L60.1295 189.253L59.7663 189.253L35.042 189.253L55.0444 174.721L55.3382 174.507L55.226 174.162L47.5858 150.648Z" stroke="#FF0000"/>
</g>
<g filter="url(#filter3_d_1_2)">
<path d="M150.445 149.339L171.692 164.776L192.939 149.339L184.823 174.316L206.071 189.753L179.808 189.753L171.692 214.731L163.576 189.753L137.313 189.753L158.56 174.316L150.445 149.339Z" fill="white"/>
<path d="M151.396 150.648L171.398 165.18L171.692 165.394L171.986 165.18L191.988 150.648L184.348 174.162L184.236 174.507L184.53 174.721L204.532 189.253L179.808 189.253L179.444 189.253L179.332 189.599L171.692 213.113L164.052 189.599L163.939 189.253L163.576 189.253L138.852 189.253L158.854 174.721L159.148 174.507L159.036 174.162L151.396 150.648Z" stroke="#2C75FF"/>
</g>
<g filter="url(#filter4_d_1_2)">
<path d="M67.9049 126.238L79.5583 162.104H117.269L86.7605 184.27L98.4139 220.135L67.9049 197.969L37.396 220.135L49.0494 184.27L18.5404 162.104H56.2515L67.9049 126.238Z" fill="white"/>
<path d="M67.9049 127.856L79.0828 162.258L79.195 162.604H79.5583H115.731L86.4666 183.865L86.1727 184.079L86.285 184.424L97.4628 218.826L68.1988 197.565L67.9049 197.351L67.611 197.565L38.347 218.826L49.5249 184.424L49.6371 184.079L49.3433 183.865L20.0792 162.604H56.2515H56.6148L56.7271 162.258L67.9049 127.856Z" stroke="#FF0000"/>
</g>
<path d="M79.9543 162.387L67.9049 126.238V179.07L79.9543 162.387Z" fill="#FF0000"/>
<path d="M67.9049 179.07L117.27 162.108L86.7205 184.261L67.9049 179.07Z" fill="#FF0000"/>
<path d="M98.3991 220.112L67.9049 179.07V197.941L98.3991 220.112Z" fill="#FF0000"/>
<path d="M37.3923 220.131L67.905 179.07L49.0338 184.261L37.3923 220.131Z" fill="#FF0000"/>
<path d="M67.9049 179.07L18.5582 162.108L56.2449 162.108L67.9049 179.07Z" fill="#FF0000"/>
<g filter="url(#filter5_d_1_2)">
<path d="M171.715 126.238L183.368 162.103H221.079L190.57 184.269L202.224 220.135L171.715 197.969L141.206 220.135L152.859 184.269L122.35 162.103H160.061L171.715 126.238Z" fill="white"/>
<path d="M171.715 127.856L182.893 162.258L183.005 162.603H183.368H219.54L190.276 183.865L189.983 184.078L190.095 184.424L201.273 218.826L172.009 197.564L171.715 197.35L171.421 197.564L142.157 218.826L153.335 184.424L153.447 184.078L153.153 183.865L123.889 162.603H160.061H160.425L160.537 162.258L171.715 127.856Z" stroke="#2C75FF"/>
</g>
<path d="M183.764 162.386L171.715 126.238V179.069L183.764 162.386Z" fill="#2C75FF"/>
<path d="M171.715 179.069L221.08 162.108L190.53 184.26L171.715 179.069Z" fill="#2C75FF"/>
<path d="M202.209 220.111L171.715 179.069V197.941L202.209 220.111Z" fill="#2C75FF"/>
<path d="M141.202 220.13L171.715 179.069L152.844 184.26L141.202 220.13Z" fill="#2C75FF"/>
<path d="M171.715 179.069L122.368 162.108L160.055 162.108L171.715 179.069Z" fill="#2C75FF"/>
<defs>
<filter id="filter0_d_1_2" x="277.64" y="136.6" width="164.717" height="32.8" filterUnits="userSpaceOnUse" color-interpolation-filters="sRGB">
<feFlood flood-opacity="0" result="BackgroundImageFix"/>
<feColorMatrix in="SourceAlpha" type="matrix" values="0 0 0 0 0 0 0 0 0 0 0 0 0 0 0 0 0 0 127 0" result="hardAlpha"/>
<feOffset dy="-1"/>
<feGaussianBlur stdDeviation="1"/>
<feComposite in2="hardAlpha" operator="out"/>
<feColorMatrix type="matrix" values="0 0 0 0 0 0 0 0 0 0 0 0 0 0 0 0 0 0 0.25 0"/>
<feBlend mode="normal" in2="BackgroundImageFix" result="effect1_dropShadow_1_2"/>
<feBlend mode="normal" in="SourceGraphic" in2="effect1_dropShadow_1_2" result="shape"/>
</filter>
<filter id="filter1_d_1_2" x="277.64" y="182.6" width="130.243" height="32.8" filterUnits="userSpaceOnUse" color-interpolation-filters="sRGB">
<feFlood flood-opacity="0" result="BackgroundImageFix"/>
<feColorMatrix in="SourceAlpha" type="matrix" values="0 0 0 0 0 0 0 0 0 0 0 0 0 0 0 0 0 0 127 0" result="hardAlpha"/>
<feOffset dy="-1"/>
<feGaussianBlur stdDeviation="1"/>
<feComposite in2="hardAlpha" operator="out"/>
<feColorMatrix type="matrix" values="0 0 0 0 0 0 0 0 0 0 0 0 0 0 0 0 0 0 0.25 0"/>
<feBlend mode="normal" in2="BackgroundImageFix" result="effect1_dropShadow_1_2"/>
<feBlend mode="normal" in="SourceGraphic" in2="effect1_dropShadow_1_2" result="shape"/>
</filter>
<filter id="filter2_d_1_2" x="29.5032" y="148.339" width="76.7577" height="73.3925" filterUnits="userSpaceOnUse" color-interpolation-filters="sRGB">
<feFlood flood-opacity="0" result="BackgroundImageFix"/>
<feColorMatrix in="SourceAlpha" type="matrix" values="0 0 0 0 0 0 0 0 0 0 0 0 0 0 0 0 0 0 127 0" result="hardAlpha"/>
<feOffset dy="3"/>
<feGaussianBlur stdDeviation="2"/>
<feComposite in2="hardAlpha" operator="out"/>
<feColorMatrix type="matrix" values="0 0 0 0 1 0 0 0 0 0 0 0 0 0 0 0 0 0 0.25 0"/>
<feBlend mode="normal" in2="BackgroundImageFix" result="effect1_dropShadow_1_2"/>
<feBlend mode="normal" in="SourceGraphic" in2="effect1_dropShadow_1_2" result="shape"/>
</filter>
<filter id="filter3_d_1_2" x="133.313" y="148.339" width="76.7577" height="73.3925" filterUnits="userSpaceOnUse" color-interpolation-filters="sRGB">
<feFlood flood-opacity="0" result="BackgroundImageFix"/>
<feColorMatrix in="SourceAlpha" type="matrix" values="0 0 0 0 0 0 0 0 0 0 0 0 0 0 0 0 0 0 127 0" result="hardAlpha"/>
<feOffset dy="3"/>
<feGaussianBlur stdDeviation="2"/>
<feComposite in2="hardAlpha" operator="out"/>
<feColorMatrix type="matrix" values="0 0 0 0 1 0 0 0 0 0 0 0 0 0 0 0 0 0 0.25 0"/>
<feBlend mode="normal" in2="BackgroundImageFix" result="effect1_dropShadow_1_2"/>
<feBlend mode="normal" in="SourceGraphic" in2="effect1_dropShadow_1_2" result="shape"/>
</filter>
<filter id="filter4_d_1_2" x="14.5404" y="125.238" width="106.729" height="101.897" filterUnits="userSpaceOnUse" color-interpolation-filters="sRGB">
<feFlood flood-opacity="0" result="BackgroundImageFix"/>
<feColorMatrix in="SourceAlpha" type="matrix" values="0 0 0 0 0 0 0 0 0 0 0 0 0 0 0 0 0 0 127 0" result="hardAlpha"/>
<feOffset dy="3"/>
<feGaussianBlur stdDeviation="2"/>
<feComposite in2="hardAlpha" operator="out"/>
<feColorMatrix type="matrix" values="0 0 0 0 1 0 0 0 0 0 0 0 0 0 0 0 0 0 0.25 0"/>
<feBlend mode="normal" in2="BackgroundImageFix" result="effect1_dropShadow_1_2"/>
<feBlend mode="normal" in="SourceGraphic" in2="effect1_dropShadow_1_2" result="shape"/>
</filter>
<filter id="filter5_d_1_2" x="118.35" y="125.238" width="106.729" height="101.897" filterUnits="userSpaceOnUse" color-interpolation-filters="sRGB">
<feFlood flood-opacity="0" result="BackgroundImageFix"/>
<feColorMatrix in="SourceAlpha" type="matrix" values="0 0 0 0 0 0 0 0 0 0 0 0 0 0 0 0 0 0 127 0" result="hardAlpha"/>
<feOffset dy="3"/>
<feGaussianBlur stdDeviation="2"/>
<feComposite in2="hardAlpha" operator="out"/>
<feColorMatrix type="matrix" values="0 0 0 0 0.172549 0 0 0 0 0.458824 0 0 0 0 1 0 0 0 0.25 0"/>
<feBlend mode="normal" in2="BackgroundImageFix" result="effect1_dropShadow_1_2"/>
<feBlend mode="normal" in="SourceGraphic" in2="effect1_dropShadow_1_2" result="shape"/>
</filter>
</defs>
</svg>
